# xmcd
# 
# Track frame offsets:
#     150
#     29268
#     48790
#     72791
#     92020
#     113075
#     129702
#     152897
#     173374
#     191770
#     205029
#     222966
# 
# Disc length: 3359
# 
# Revision: 5
# Processed by: cddbd v1.5.2PL0 Copyright (c) Steve Scherf et al.
# Submitted via: fre:ac v1.0.17
# 
DISCID=9d0d1d0c
DTITLE=Sonny Landreth - Levee Town
DYEAR=2000
DGENRE=Blues
TTITLE0=Levee Town
TTITLE1=This River
TTITLE2=The USS Zydecoldsmobile
TTITLE3=Love and Glory
TTITLE4=Broken Hearted Road
TTITLE5=Spider-Gris
TTITLE6=Godchild
TTITLE7=Turning With The Century
TTITLE8=Z. Rider
TTITLE9=Soul Salvtioan
TTITLE10=Angeline
TTITLE11=Deep South
EXTD=
EXTT0=
EXTT1=
EXTT2=
EXTT3=
EXTT4=
EXTT5=
EXTT6=
EXTT7=
EXTT8=
EXTT9=
EXTT10=
EXTT11=
PLAYORDER=
